<svg width="109" height="54" viewBox="0 0 109 54" fill="none" xmlns="http://www.w3.org/2000/svg">
<g clip-path="url(#clip0_1_4993)">
<path d="M85.0127 48.1132L85.3374 48.3903L85.662 48.1132C88.3464 45.8216 90.3822 43.6687 91.7499 41.6523C93.1166 39.6376 93.8374 37.7277 93.8374 35.9329C93.8374 30.6615 89.798 27.2329 85.3374 27.2329C80.8768 27.2329 76.8374 30.6615 76.8374 35.9329C76.8374 37.7277 77.5582 39.6376 78.9248 41.6523C80.2926 43.6687 82.3283 45.8216 85.0127 48.1132ZM82.8374 35.7329C82.8374 37.1091 83.9612 38.2329 85.3374 38.2329C86.7135 38.2329 87.8374 37.1091 87.8374 35.7329C87.8374 34.3568 86.7135 33.2329 85.3374 33.2329C83.9612 33.2329 82.8374 34.3568 82.8374 35.7329ZM85.3374 30.2329C88.4048 30.2329 90.8374 32.5725 90.8374 35.9329C90.8374 36.9685 90.4031 38.2328 89.4368 39.7206C88.5286 41.1189 87.1715 42.682 85.3374 44.3925C83.5033 42.682 82.1462 41.1189 81.2379 39.7206C80.2717 38.2328 79.8374 36.9685 79.8374 35.9329C79.8374 32.5725 82.27 30.2329 85.3374 30.2329Z" fill="#952C2C" stroke="#952C2C"/>
</g>
<path d="M78.5097 21.9971L75.5826 17.412L75.3136 16.9906L74.8922 17.2596L73.2233 18.325L72.8019 18.5941L73.0709 19.0155L77.3324 25.6908L77.6014 26.1123L78.0229 25.8432L92.3271 16.7115L92.7486 16.4425L92.4795 16.021L91.4142 14.3522L91.1451 13.9307L90.7237 14.1998L78.5097 21.9971Z" fill="#5B8D09" stroke="#5B8D09"/>
<path d="M10.166 27.051C7.36604 27.051 5.23004 26.363 3.75804 24.987C2.28604 23.611 1.55004 21.667 1.55004 19.155C1.55004 16.563 2.27004 14.579 3.71004 13.203C5.15004 11.811 7.29404 11.115 10.142 11.115C11.102 11.115 11.958 11.187 12.71 11.331C13.462 11.475 14.182 11.675 14.87 11.931V15.867C13.494 15.259 12.022 14.955 10.454 14.955C8.99804 14.955 7.91804 15.291 7.21404 15.963C6.51004 16.619 6.15804 17.683 6.15804 19.155C6.15804 20.595 6.52604 21.635 7.26204 22.275C8.01404 22.899 9.09404 23.211 10.502 23.211C11.27 23.211 12.014 23.139 12.734 22.995C13.47 22.851 14.198 22.627 14.918 22.323V26.283C14.23 26.523 13.502 26.707 12.734 26.835C11.982 26.979 11.126 27.051 10.166 27.051ZM16.6082 26.811V11.355H21.1202V17.115H26.4482V11.355H30.9602V26.811H26.4482V21.051H21.1202V26.811H16.6082ZM33.1316 26.811V11.355H44.8436V14.811H37.6436V17.331H43.9556V20.835H37.6436V23.355H44.8436V26.811H33.1316ZM54.416 27.051C51.616 27.051 49.48 26.363 48.008 24.987C46.536 23.611 45.8 21.667 45.8 19.155C45.8 16.563 46.52 14.579 47.96 13.203C49.4 11.811 51.544 11.115 54.392 11.115C55.352 11.115 56.208 11.187 56.96 11.331C57.712 11.475 58.432 11.675 59.12 11.931V15.867C57.744 15.259 56.272 14.955 54.704 14.955C53.248 14.955 52.168 15.291 51.464 15.963C50.76 16.619 50.408 17.683 50.408 19.155C50.408 20.595 50.776 21.635 51.512 22.275C52.264 22.899 53.344 23.211 54.752 23.211C55.52 23.211 56.264 23.139 56.984 22.995C57.72 22.851 58.448 22.627 59.168 22.323V26.283C58.48 26.523 57.752 26.707 56.984 26.835C56.232 26.979 55.376 27.051 54.416 27.051ZM60.8582 26.811V11.355H65.3702V16.803L70.0502 11.355H75.1862L69.7382 17.691L75.5702 26.811H70.7702L66.9542 20.571L65.3702 22.347V26.811H60.8582Z" fill="#2F2F2F"/>
<path d="M53.4458 43.5814C52.4058 43.5814 51.4218 43.5014 50.4938 43.3414C49.5658 43.1654 48.7738 42.9254 48.1178 42.6214V38.9014C48.8378 39.2374 49.6378 39.5094 50.5178 39.7174C51.3978 39.9254 52.2218 40.0294 52.9898 40.0294C53.7898 40.0294 54.3898 39.9654 54.7898 39.8374C55.2058 39.6934 55.4138 39.3814 55.4138 38.9014C55.4138 38.5654 55.2938 38.3014 55.0538 38.1094C54.8298 37.9174 54.4698 37.7414 53.9738 37.5814C53.4938 37.4214 52.8618 37.2214 52.0778 36.9814C51.0378 36.6454 50.2138 36.2774 49.6058 35.8774C48.9978 35.4774 48.5578 34.9894 48.2858 34.4134C48.0298 33.8374 47.9018 33.1334 47.9018 32.3014C47.9018 30.7814 48.4378 29.6294 49.5098 28.8454C50.5978 28.0454 52.2058 27.6454 54.3338 27.6454C55.1818 27.6454 56.0538 27.7174 56.9498 27.8614C57.8618 28.0054 58.5978 28.1654 59.1578 28.3414V32.0854C58.4058 31.7814 57.6858 31.5654 56.9978 31.4374C56.3098 31.3094 55.6618 31.2454 55.0538 31.2454C54.3498 31.2454 53.7498 31.3014 53.2538 31.4134C52.7578 31.5254 52.5098 31.8134 52.5098 32.2774C52.5098 32.6774 52.7178 32.9734 53.1338 33.1654C53.5658 33.3414 54.3258 33.5734 55.4138 33.8614C56.6778 34.1974 57.6378 34.6054 58.2938 35.0854C58.9658 35.5654 59.4218 36.1254 59.6618 36.7654C59.9018 37.3894 60.0218 38.1014 60.0218 38.9014C60.0218 40.3094 59.4778 41.4454 58.3898 42.3094C57.3018 43.1574 55.6538 43.5814 53.4458 43.5814ZM61.6943 43.3414V27.8854H69.6623C70.9263 27.8854 71.9663 28.1414 72.7823 28.6534C73.6143 29.1494 74.2303 29.8294 74.6303 30.6934C75.0303 31.5574 75.2303 32.5174 75.2303 33.5734C75.2303 34.6614 74.9983 35.6294 74.5343 36.4774C74.0703 37.3254 73.4143 37.9894 72.5663 38.4694C71.7183 38.9494 70.7183 39.1894 69.5663 39.1894H66.2063V43.3414H61.6943ZM66.2063 35.7334H68.5343C69.2383 35.7334 69.7583 35.5334 70.0943 35.1334C70.4463 34.7334 70.6223 34.2134 70.6223 33.5734C70.6223 32.8854 70.4623 32.3414 70.1423 31.9414C69.8223 31.5414 69.3263 31.3414 68.6543 31.3414H66.2063V35.7334ZM99.508 43.3414V31.2454H95.164V27.8854H108.364V31.2454H104.02V43.3414H99.508Z" fill="#2F2F2F"/>
<defs>
<clipPath id="clip0_1_4993">
<rect width="24" height="24" fill="white" transform="translate(73.3374 25.7329)"/>
</clipPath>
</defs>
</svg>
