<svg width="27" height="35" viewBox="0 0 27 35" fill="none" xmlns="http://www.w3.org/2000/svg">
<g clip-path="url(#clip0_1_4992)">
<path d="M11.6754 22.7509L12 23.028L12.3246 22.7509C15.0091 20.4593 17.0448 18.3064 18.4125 16.29C19.7792 14.2753 20.5 12.3654 20.5 10.5706C20.5 5.29913 16.4606 1.87057 12 1.87057C7.53941 1.87057 3.5 5.29913 3.5 10.5706C3.5 12.3654 4.22082 14.2753 5.58746 16.29C6.95522 18.3064 8.99092 20.4593 11.6754 22.7509ZM9.5 10.3706C9.5 11.7467 10.6239 12.8706 12 12.8706C13.3761 12.8706 14.5 11.7467 14.5 10.3706C14.5 8.99443 13.3761 7.87057 12 7.87057C10.6239 7.87057 9.5 8.99443 9.5 10.3706ZM12 4.87057C15.0674 4.87057 17.5 7.2102 17.5 10.5706C17.5 11.6062 17.0657 12.8705 16.0994 14.3582C15.1912 15.7566 13.8341 17.3196 12 19.0302C10.1659 17.3196 8.8088 15.7566 7.90057 14.3582C6.93428 12.8705 6.5 11.6062 6.5 10.5706C6.5 7.2102 8.93261 4.87057 12 4.87057Z" fill="#616261" stroke="#616261"/>
</g>
<g clip-path="url(#clip1_1_4992)">
<path d="M12 23.8635L8.15355 20.017L7.79999 19.6635L7.44644 20.017L6.04644 21.417L5.69289 21.7706L6.04644 22.1241L11.6464 27.7241L12 28.0777L12.3535 27.7241L24.3535 15.7241L24.7071 15.3706L24.3535 15.017L22.9535 13.617L22.6 13.2635L22.2464 13.617L12 23.8635Z" fill="#858685" stroke="#858685"/>
</g>
<ellipse cx="13.0667" cy="34.5155" rx="5.82968" ry="0.437225" fill="#858685" fill-opacity="0.8"/>
<defs>
<clipPath id="clip0_1_4992">
<rect width="24" height="24" fill="white" transform="translate(0 0.370575)"/>
</clipPath>
<clipPath id="clip1_1_4992">
<rect width="24" height="24" fill="white" transform="translate(3 8.37057)"/>
</clipPath>
</defs>
</svg>
