<svg width="109" height="54" viewBox="0 0 109 54" fill="none" xmlns="http://www.w3.org/2000/svg">
<g clip-path="url(#clip0_1_4991)">
<path d="M84.772 47.7837L85.0966 48.0608L85.4212 47.7837C88.1057 45.4921 90.1414 43.3392 91.5092 41.3228C92.8758 39.3081 93.5966 37.3982 93.5966 35.6034C93.5966 30.3319 89.5572 26.9034 85.0966 26.9034C80.636 26.9034 76.5966 30.3319 76.5966 35.6034C76.5966 37.3982 77.3174 39.3081 78.6841 41.3228C80.0518 43.3392 82.0875 45.4921 84.772 47.7837ZM82.5966 35.4034C82.5966 36.7795 83.7205 37.9034 85.0966 37.9034C86.4728 37.9034 87.5966 36.7795 87.5966 35.4034C87.5966 34.0272 86.4728 32.9034 85.0966 32.9034C83.7205 32.9034 82.5966 34.0272 82.5966 35.4034ZM85.0966 29.9034C88.164 29.9034 90.5966 32.243 90.5966 35.6034C90.5966 36.639 90.1623 37.9033 89.1961 39.391C88.2878 40.7894 86.9307 42.3524 85.0966 44.063C83.2625 42.3524 81.9054 40.7894 80.9972 39.391C80.0309 37.9033 79.5966 36.639 79.5966 35.6034C79.5966 32.243 82.0292 29.9034 85.0966 29.9034Z" fill="#616261" stroke="#616261"/>
</g>
<g clip-path="url(#clip1_1_4991)">
<path d="M78.2689 21.6676L75.3419 17.0825L75.0728 16.6611L74.6514 16.9301L72.9826 17.9955L72.5611 18.2645L72.8302 18.686L77.0916 25.3613L77.3607 25.7827L77.7821 25.5137L92.0864 16.382L92.5078 16.1129L92.2388 15.6915L91.1734 14.0227L90.9044 13.6012L90.4829 13.8703L78.2689 21.6676Z" fill="#616261" stroke="#616261"/>
</g>
<path d="M9.92529 26.7215C7.12529 26.7215 4.98929 26.0335 3.51729 24.6575C2.04529 23.2815 1.30929 21.3375 1.30929 18.8255C1.30929 16.2335 2.02929 14.2495 3.46929 12.8735C4.90929 11.4815 7.05329 10.7855 9.90129 10.7855C10.8613 10.7855 11.7173 10.8575 12.4693 11.0015C13.2213 11.1455 13.9413 11.3455 14.6293 11.6015V15.5375C13.2533 14.9295 11.7813 14.6255 10.2133 14.6255C8.75729 14.6255 7.67729 14.9615 6.97329 15.6335C6.26929 16.2895 5.91729 17.3535 5.91729 18.8255C5.91729 20.2655 6.28529 21.3055 7.02129 21.9455C7.77329 22.5695 8.85329 22.8815 10.2613 22.8815C11.0293 22.8815 11.7733 22.8095 12.4933 22.6655C13.2293 22.5215 13.9573 22.2975 14.6773 21.9935V25.9535C13.9893 26.1935 13.2613 26.3775 12.4933 26.5055C11.7413 26.6495 10.8853 26.7215 9.92529 26.7215ZM16.3674 26.4815V11.0255H20.8794V16.7855H26.2074V11.0255H30.7194V26.4815H26.2074V20.7215H20.8794V26.4815H16.3674ZM32.8909 26.4815V11.0255H44.6029V14.4815H37.4029V17.0015H43.7149V20.5055H37.4029V23.0255H44.6029V26.4815H32.8909ZM54.1753 26.7215C51.3753 26.7215 49.2393 26.0335 47.7673 24.6575C46.2953 23.2815 45.5593 21.3375 45.5593 18.8255C45.5593 16.2335 46.2793 14.2495 47.7193 12.8735C49.1593 11.4815 51.3033 10.7855 54.1513 10.7855C55.1113 10.7855 55.9673 10.8575 56.7193 11.0015C57.4713 11.1455 58.1913 11.3455 58.8793 11.6015V15.5375C57.5033 14.9295 56.0313 14.6255 54.4633 14.6255C53.0073 14.6255 51.9273 14.9615 51.2233 15.6335C50.5193 16.2895 50.1673 17.3535 50.1673 18.8255C50.1673 20.2655 50.5353 21.3055 51.2713 21.9455C52.0233 22.5695 53.1033 22.8815 54.5113 22.8815C55.2793 22.8815 56.0233 22.8095 56.7433 22.6655C57.4793 22.5215 58.2073 22.2975 58.9273 21.9935V25.9535C58.2393 26.1935 57.5113 26.3775 56.7433 26.5055C55.9913 26.6495 55.1353 26.7215 54.1753 26.7215ZM60.6174 26.4815V11.0255H65.1294V16.4735L69.8094 11.0255H74.9454L69.4974 17.3615L75.3294 26.4815H70.5294L66.7134 20.2415L65.1294 22.0175V26.4815H60.6174Z" fill="#2F2F2F"/>
<path d="M53.205 43.2519C52.165 43.2519 51.181 43.1719 50.253 43.0119C49.325 42.8359 48.533 42.5959 47.877 42.2919V38.5719C48.597 38.9079 49.397 39.1799 50.277 39.3879C51.157 39.5959 51.981 39.6999 52.749 39.6999C53.549 39.6999 54.149 39.6359 54.549 39.5079C54.965 39.3639 55.173 39.0519 55.173 38.5719C55.173 38.2359 55.053 37.9719 54.813 37.7799C54.589 37.5879 54.229 37.4119 53.733 37.2519C53.253 37.0919 52.621 36.8919 51.837 36.6519C50.797 36.3159 49.973 35.9479 49.365 35.5479C48.757 35.1479 48.317 34.6599 48.045 34.0839C47.789 33.5079 47.661 32.8039 47.661 31.9719C47.661 30.4519 48.197 29.2999 49.269 28.5159C50.357 27.7159 51.965 27.3159 54.093 27.3159C54.941 27.3159 55.813 27.3879 56.709 27.5319C57.621 27.6759 58.357 27.8359 58.917 28.0119V31.7559C58.165 31.4519 57.445 31.2359 56.757 31.1079C56.069 30.9799 55.421 30.9159 54.813 30.9159C54.109 30.9159 53.509 30.9719 53.013 31.0839C52.517 31.1959 52.269 31.4839 52.269 31.9479C52.269 32.3479 52.477 32.6439 52.893 32.8359C53.325 33.0119 54.085 33.2439 55.173 33.5319C56.437 33.8679 57.397 34.2759 58.053 34.7559C58.725 35.2359 59.181 35.7959 59.421 36.4359C59.661 37.0599 59.781 37.7719 59.781 38.5719C59.781 39.9799 59.237 41.1159 58.149 41.9799C57.061 42.8279 55.413 43.2519 53.205 43.2519ZM61.4535 43.0119V27.5559H69.4215C70.6855 27.5559 71.7255 27.8119 72.5415 28.3239C73.3735 28.8199 73.9895 29.4999 74.3895 30.3639C74.7895 31.2279 74.9895 32.1879 74.9895 33.2439C74.9895 34.3319 74.7575 35.2999 74.2935 36.1479C73.8295 36.9959 73.1735 37.6599 72.3255 38.1399C71.4775 38.6199 70.4775 38.8599 69.3255 38.8599H65.9655V43.0119H61.4535ZM65.9655 35.4039H68.2935C68.9975 35.4039 69.5175 35.2039 69.8535 34.8039C70.2055 34.4039 70.3815 33.8839 70.3815 33.2439C70.3815 32.5559 70.2215 32.0119 69.9015 31.6119C69.5815 31.2119 69.0855 31.0119 68.4135 31.0119H65.9655V35.4039ZM99.2672 43.0119V30.9159H94.9232V27.5559H108.123V30.9159H103.779V43.0119H99.2672Z" fill="#2F2F2F"/>
<defs>
<clipPath id="clip0_1_4991">
<rect width="24" height="24" fill="white" transform="translate(73.0966 25.4034)"/>
</clipPath>
<clipPath id="clip1_1_4991">
<rect width="24" height="24" fill="white" transform="translate(72.8195 4.59906) rotate(12.4462)"/>
</clipPath>
</defs>
</svg>
