<svg width="28" height="35" viewBox="0 0 28 35" fill="none" xmlns="http://www.w3.org/2000/svg">
<g clip-path="url(#clip0_1_5002)">
<path d="M12.2358 22.9337L12.5604 23.2109L12.8851 22.9337C15.5695 20.6421 17.6052 18.4893 18.973 16.4729C20.3396 14.4581 21.0604 12.5482 21.0604 10.7535C21.0604 5.48202 17.021 2.05347 12.5604 2.05347C8.09984 2.05347 4.06042 5.48202 4.06042 10.7535C4.06042 12.5482 4.78124 14.4581 6.14789 16.4729C7.51564 18.4893 9.55135 20.6421 12.2358 22.9337ZM10.0604 10.5535C10.0604 11.9296 11.1843 13.0535 12.5604 13.0535C13.9366 13.0535 15.0604 11.9296 15.0604 10.5535C15.0604 9.17732 13.9366 8.05347 12.5604 8.05347C11.1843 8.05347 10.0604 9.17732 10.0604 10.5535ZM12.5604 5.05347C15.6278 5.05347 18.0604 7.39309 18.0604 10.7535C18.0604 11.7891 17.6261 13.0534 16.6599 14.5411C15.7516 15.9395 14.3945 17.5025 12.5604 19.2131C10.7263 17.5025 9.36922 15.9395 8.46099 14.5411C7.4947 13.0534 7.06042 11.7891 7.06042 10.7535C7.06042 7.39309 9.49304 5.05347 12.5604 5.05347Z" fill="#952C2C" stroke="#952C2C"/>
</g>
<g clip-path="url(#clip1_1_5002)">
<path d="M12.5604 24.0463L8.71397 20.1999L8.36042 19.8463L8.00687 20.1999L6.60687 21.5999L6.25331 21.9534L6.60687 22.307L12.2069 27.907L12.5604 28.2605L12.914 27.907L24.914 15.907L25.2675 15.5534L24.914 15.1999L23.514 13.7999L23.1604 13.4463L22.8069 13.7999L12.5604 24.0463Z" fill="#5B8D09" stroke="#5B8D09"/>
</g>
<ellipse cx="12.9093" cy="33.9986" rx="5.82968" ry="0.437225" fill="#858685" fill-opacity="0.8"/>
<defs>
<clipPath id="clip0_1_5002">
<rect width="24" height="24" fill="white" transform="translate(0.560425 0.553467)"/>
</clipPath>
<clipPath id="clip1_1_5002">
<rect width="24" height="24" fill="white" transform="translate(3.56042 8.55347)"/>
</clipPath>
</defs>
</svg>
